<?xml version="1.0" encoding="UTF-8"?>
<svg id="Layer_1" xmlns="http://www.w3.org/2000/svg" viewBox="0 0 1080 689.43">
  <defs>
    <style>
      .cls-1 {
        fill: #ac96cf;
      }

      .cls-2 {
        fill: #fdfdfd;
      }
    </style>
  </defs>
  <path class="cls-1" d="M714.62,298.9c-.77,7.27,1.76,14.17,2.63,21.25,2.87,23.2,2.14,46.11-3.44,68.83-.18.71-.2,1.47-.29,2.2,1.82,3.9-.76,7.17-1.77,10.53-5.98,19.83-15.39,37.93-28.33,54.15-1.88.09-2.91,1.4-4,2.7-30.11,36.06-68.69,56.43-115.13,62.38-36.63,4.69-71.8-.2-105.12-16.35-22.53-10.92-41.8-26.19-57.91-45.4-1.04-1.24-1.72-2.96-3.67-3.17-11.64-13.45-19.95-28.83-26.19-45.38-2.28-6.05-4.17-12.25-6.27-18.38,1.25-1.66.99-3.39.56-5.29-6.31-27.95-5.79-55.93-.04-83.89.39-1.89.83-3.59-.59-5.18,5.85-21.07,13.92-41.14,26.62-59.12,1.28-1.81,2.32-3.84,4.5-4.81,4.43-4.97,8.68-10.12,13.33-14.88,28.44-29.11,62.99-46.01,103.28-51.33,41.09-5.43,80.34.17,117.19,19.77,20.13,10.71,37.26,25.08,51.25,43.12,1.13,1.46,2.05,3.15,4.24,3.2,14.25,19.65,24.44,41.13,29.17,65.05Z"/>
  <path d="M396.18,233.98c-4.38,8.15-10.13,15.45-14.28,23.76-5.73,11.47-10.52,23.27-13.96,35.63-.44,1.6.37,4.53-2.88,4.54-32.23-15.98-64.45-31.97-96.68-47.95-7.71-3.83-7.93-3.81-13.89,2.17-32.58,32.68-71.95,47.07-117.81,42.92-25.87-2.34-48.83-12.52-70.49-26.87-35.94-23.81-54.13-58.09-59.18-99.47C1.71,125.27,14.86,86.76,43.92,54.06,84.5,8.4,135.79-3.82,192.81,12.15c56.65,15.86,90.41,55.27,101.95,113.09,3.58,17.93,5.35,36.04.29,54.11-1.09,3.9,1.86,5.24,4.53,6.58,10.78,5.4,21.59,10.75,32.38,16.12,21.4,10.64,42.81,21.29,64.21,31.93Z"/>
  <path d="M714.62,298.9c-1.66-.7-1.67-2.39-2.01-3.74-5.22-20.73-13.95-39.85-26.07-57.44-.79-1.14-2.3-2.14-1.09-3.87,27.87-13.89,55.75-27.78,83.63-41.66,3.15-1.57,6.28-3.21,9.54-4.49,5.82-2.27,8.24-6.19,7.72-12.53-1.38-16.72-1.52-33.44,1.91-49.98,10.5-50.72,45.28-102.59,116.38-114.71,46.47-7.92,88.57,1.83,122.65,35.12,82.09,80.17,49.75,205.48-46.27,240.97-52.2,19.29-112.4,10.49-154.62-35.26-3.53-3.82-6.71-4.67-11.64-2.19-33.3,16.75-66.75,33.22-100.15,49.78Z"/>
  <path d="M683.42,455.87c-.59-1.41.11-2.42.92-3.51,13.78-18.45,23.25-38.97,29.18-61.18,24.06,11.97,48.12,23.93,72.16,35.93,8.29,4.14,16.51,8.41,24.77,12.62,8.35,4.26,11.95,3.6,18.95-2.84,44.24-40.65,96.21-51.46,151.52-31.44,52.88,19.14,84.72,59.2,91.04,116.29,5.36,48.4-9.66,90.4-45.34,123.93-25.25,23.74-56.33,34.26-90.59,36.54-73.18,4.85-137.07-46.52-147.89-119.07-2.21-14.79-2.83-29.59-1.15-44.46.72-6.39-1.23-11.32-7.19-14.32-32.13-16.17-64.25-32.34-96.38-48.51Z"/>
  <path d="M365.13,392.27c2.17-.18,2.13,1.55,2.52,2.91,6.1,21.04,15.58,40.39,28.84,57.86.68.89,1.42,1.75,1.1,2.99-31.78,16.04-63.53,32.13-95.35,48.09-5.7,2.86-8.21,6.91-7.61,13.37,2.19,23.9,1.5,47.7-7.24,70.32-19.95,51.63-56.23,84.97-111.84,92.99-90.69,13.09-150.51-46.32-163.46-109.5-19.09-93.08,40.21-160.18,114.65-172.79,47.64-8.07,90.06,5.43,125.77,38.58,7.63,7.09,8.68,7.2,18.08,2.5,31.52-15.76,63.03-31.55,94.55-47.32Z"/>
  <path class="cls-2" d="M537.13,434.83c-49.05.02-88.37-39.16-88.4-88.1-.04-51.86,37.14-89.51,88.76-89.17,52.98.35,89.99,36.4,89.93,89.21-.05,49.43-39.62,88.04-90.29,88.06Z"/>
  <path class="cls-2" d="M151.99,226.18c-42.34,0-73.83-31.98-73.75-74.89.07-42.41,31.32-72.72,74.95-72.71,40.71.01,72.31,32.28,72.29,73.83-.03,40.88-32.79,73.78-73.48,73.77Z"/>
  <path class="cls-2" d="M856.27,150.81c0-41.05,31.83-72.24,73.74-72.23,42.11,0,73.49,31.34,73.31,73.18-.19,43.22-31.82,74.45-75.35,74.42-40.09-.03-71.69-33.25-71.69-75.37Z"/>
  <path class="cls-2" d="M856.27,539.09c0-42.11,30.68-72.8,72.76-72.81,43.76,0,74.66,30.12,74.66,72.79,0,41.74-32.29,73.57-74.66,73.49-43.08-.08-74.2-36.09-72.76-73.48Z"/>
  <path class="cls-2" d="M225.47,539.77c0,40.5-32.59,72.73-73.64,72.81-41.35.08-73.76-31.77-73.78-72.49-.02-44.45,30.15-73.86,75.71-73.81,40.97.05,71.71,31.55,71.71,73.49Z"/>
</svg>